<mxfile host="app.diagrams.net" agent="Mozilla/5.0 (Windows NT 10.0; Win64; x64) AppleWebKit/537.36 (KHTML, like Gecko) Chrome/135.0.0.0 Safari/537.36" version="26.1.1">
  <diagram id="C5RBs43oDa-KdzZeNtuy" name="Page-1">
    <mxGraphModel dx="1662" dy="556" grid="0" gridSize="10" guides="1" tooltips="1" connect="1" arrows="1" fold="1" page="0" pageScale="1" pageWidth="827" pageHeight="1169" math="0" shadow="0">
      <root>
        <mxCell id="WIyWlLk6GJQsqaUBKTNV-0" />
        <mxCell id="WIyWlLk6GJQsqaUBKTNV-1" parent="WIyWlLk6GJQsqaUBKTNV-0" />
        <mxCell id="84JxiOLE3dLLp7DLEGVT-0" style="edgeStyle=orthogonalEdgeStyle;rounded=0;orthogonalLoop=1;jettySize=auto;html=1;" edge="1" parent="WIyWlLk6GJQsqaUBKTNV-1" source="WIyWlLk6GJQsqaUBKTNV-3" target="WIyWlLk6GJQsqaUBKTNV-12">
          <mxGeometry relative="1" as="geometry" />
        </mxCell>
        <mxCell id="WIyWlLk6GJQsqaUBKTNV-3" value="Modify Code" style="rounded=1;whiteSpace=wrap;html=1;fontSize=12;glass=0;strokeWidth=1;shadow=0;" parent="WIyWlLk6GJQsqaUBKTNV-1" vertex="1">
          <mxGeometry x="160" y="80" width="120" height="40" as="geometry" />
        </mxCell>
        <mxCell id="84JxiOLE3dLLp7DLEGVT-1" style="edgeStyle=orthogonalEdgeStyle;rounded=0;orthogonalLoop=1;jettySize=auto;html=1;entryX=0;entryY=0.5;entryDx=0;entryDy=0;" edge="1" parent="WIyWlLk6GJQsqaUBKTNV-1" source="WIyWlLk6GJQsqaUBKTNV-6" target="84JxiOLE3dLLp7DLEGVT-8">
          <mxGeometry relative="1" as="geometry">
            <mxPoint x="344.4000244140625" y="342.0000305175781" as="targetPoint" />
          </mxGeometry>
        </mxCell>
        <mxCell id="84JxiOLE3dLLp7DLEGVT-5" value="Test passes" style="edgeLabel;html=1;align=center;verticalAlign=middle;resizable=0;points=[];" vertex="1" connectable="0" parent="84JxiOLE3dLLp7DLEGVT-1">
          <mxGeometry x="0.0116" y="-1" relative="1" as="geometry">
            <mxPoint as="offset" />
          </mxGeometry>
        </mxCell>
        <mxCell id="84JxiOLE3dLLp7DLEGVT-2" style="edgeStyle=orthogonalEdgeStyle;rounded=0;orthogonalLoop=1;jettySize=auto;html=1;" edge="1" parent="WIyWlLk6GJQsqaUBKTNV-1" source="WIyWlLk6GJQsqaUBKTNV-6" target="84JxiOLE3dLLp7DLEGVT-6">
          <mxGeometry relative="1" as="geometry">
            <mxPoint x="127" y="352" as="targetPoint" />
          </mxGeometry>
        </mxCell>
        <mxCell id="84JxiOLE3dLLp7DLEGVT-4" value="Test fails" style="edgeLabel;html=1;align=center;verticalAlign=middle;resizable=0;points=[];" vertex="1" connectable="0" parent="84JxiOLE3dLLp7DLEGVT-2">
          <mxGeometry x="-0.3176" y="1" relative="1" as="geometry">
            <mxPoint as="offset" />
          </mxGeometry>
        </mxCell>
        <mxCell id="WIyWlLk6GJQsqaUBKTNV-6" value="Tests Run" style="rhombus;whiteSpace=wrap;html=1;shadow=0;fontFamily=Helvetica;fontSize=12;align=center;strokeWidth=1;spacing=6;spacingTop=-4;" parent="WIyWlLk6GJQsqaUBKTNV-1" vertex="1">
          <mxGeometry x="170" y="265" width="100" height="80" as="geometry" />
        </mxCell>
        <mxCell id="84JxiOLE3dLLp7DLEGVT-3" style="edgeStyle=orthogonalEdgeStyle;rounded=0;orthogonalLoop=1;jettySize=auto;html=1;" edge="1" parent="WIyWlLk6GJQsqaUBKTNV-1" source="WIyWlLk6GJQsqaUBKTNV-12" target="WIyWlLk6GJQsqaUBKTNV-6">
          <mxGeometry relative="1" as="geometry" />
        </mxCell>
        <mxCell id="WIyWlLk6GJQsqaUBKTNV-12" value="Push to Github" style="rounded=1;whiteSpace=wrap;html=1;fontSize=12;glass=0;strokeWidth=1;shadow=0;" parent="WIyWlLk6GJQsqaUBKTNV-1" vertex="1">
          <mxGeometry x="160" y="173" width="120" height="40" as="geometry" />
        </mxCell>
        <mxCell id="84JxiOLE3dLLp7DLEGVT-7" style="edgeStyle=orthogonalEdgeStyle;rounded=0;orthogonalLoop=1;jettySize=auto;html=1;exitX=0.5;exitY=0;exitDx=0;exitDy=0;entryX=0;entryY=0.5;entryDx=0;entryDy=0;" edge="1" parent="WIyWlLk6GJQsqaUBKTNV-1" source="84JxiOLE3dLLp7DLEGVT-6" target="WIyWlLk6GJQsqaUBKTNV-3">
          <mxGeometry relative="1" as="geometry">
            <mxPoint x="140" y="122" as="targetPoint" />
            <Array as="points">
              <mxPoint x="25" y="100" />
            </Array>
          </mxGeometry>
        </mxCell>
        <mxCell id="84JxiOLE3dLLp7DLEGVT-6" value="Check error" style="rounded=1;whiteSpace=wrap;html=1;fontSize=12;glass=0;strokeWidth=1;shadow=0;" vertex="1" parent="WIyWlLk6GJQsqaUBKTNV-1">
          <mxGeometry x="-35" y="311" width="120" height="40" as="geometry" />
        </mxCell>
        <mxCell id="84JxiOLE3dLLp7DLEGVT-15" style="edgeStyle=orthogonalEdgeStyle;rounded=0;orthogonalLoop=1;jettySize=auto;html=1;" edge="1" parent="WIyWlLk6GJQsqaUBKTNV-1" source="84JxiOLE3dLLp7DLEGVT-8" target="84JxiOLE3dLLp7DLEGVT-13">
          <mxGeometry relative="1" as="geometry" />
        </mxCell>
        <mxCell id="84JxiOLE3dLLp7DLEGVT-8" value="Run Terraform (IaC)&lt;div&gt;apply green.tf&lt;/div&gt;" style="rounded=1;whiteSpace=wrap;html=1;fontSize=12;glass=0;strokeWidth=1;shadow=0;" vertex="1" parent="WIyWlLk6GJQsqaUBKTNV-1">
          <mxGeometry x="357" y="311" width="120" height="40" as="geometry" />
        </mxCell>
        <mxCell id="84JxiOLE3dLLp7DLEGVT-20" style="edgeStyle=orthogonalEdgeStyle;rounded=0;orthogonalLoop=1;jettySize=auto;html=1;entryX=0.5;entryY=1;entryDx=0;entryDy=0;exitX=0.5;exitY=0;exitDx=0;exitDy=0;" edge="1" parent="WIyWlLk6GJQsqaUBKTNV-1" source="84JxiOLE3dLLp7DLEGVT-13" target="84JxiOLE3dLLp7DLEGVT-27">
          <mxGeometry relative="1" as="geometry" />
        </mxCell>
        <mxCell id="84JxiOLE3dLLp7DLEGVT-21" value="Fail" style="edgeLabel;html=1;align=center;verticalAlign=middle;resizable=0;points=[];" vertex="1" connectable="0" parent="84JxiOLE3dLLp7DLEGVT-20">
          <mxGeometry x="-0.7797" relative="1" as="geometry">
            <mxPoint as="offset" />
          </mxGeometry>
        </mxCell>
        <mxCell id="84JxiOLE3dLLp7DLEGVT-22" style="edgeStyle=orthogonalEdgeStyle;rounded=0;orthogonalLoop=1;jettySize=auto;html=1;entryX=0;entryY=0.5;entryDx=0;entryDy=0;" edge="1" parent="WIyWlLk6GJQsqaUBKTNV-1" source="84JxiOLE3dLLp7DLEGVT-13" target="84JxiOLE3dLLp7DLEGVT-23">
          <mxGeometry relative="1" as="geometry">
            <mxPoint x="723.6000366210938" y="331" as="targetPoint" />
          </mxGeometry>
        </mxCell>
        <mxCell id="84JxiOLE3dLLp7DLEGVT-24" value="Success" style="edgeLabel;html=1;align=center;verticalAlign=middle;resizable=0;points=[];" vertex="1" connectable="0" parent="84JxiOLE3dLLp7DLEGVT-22">
          <mxGeometry x="-0.1302" y="-1" relative="1" as="geometry">
            <mxPoint as="offset" />
          </mxGeometry>
        </mxCell>
        <mxCell id="84JxiOLE3dLLp7DLEGVT-13" value="Health Check" style="rhombus;whiteSpace=wrap;html=1;shadow=0;fontFamily=Helvetica;fontSize=12;align=center;strokeWidth=1;spacing=6;spacingTop=-4;" vertex="1" parent="WIyWlLk6GJQsqaUBKTNV-1">
          <mxGeometry x="523" y="291" width="100" height="80" as="geometry" />
        </mxCell>
        <mxCell id="84JxiOLE3dLLp7DLEGVT-26" style="edgeStyle=orthogonalEdgeStyle;rounded=0;orthogonalLoop=1;jettySize=auto;html=1;" edge="1" parent="WIyWlLk6GJQsqaUBKTNV-1" source="84JxiOLE3dLLp7DLEGVT-23" target="84JxiOLE3dLLp7DLEGVT-25">
          <mxGeometry relative="1" as="geometry" />
        </mxCell>
        <mxCell id="84JxiOLE3dLLp7DLEGVT-23" value="Switch Traffic&lt;div&gt;apply switch_to_green.tf&lt;/div&gt;" style="rounded=1;whiteSpace=wrap;html=1;fontSize=12;glass=0;strokeWidth=1;shadow=0;" vertex="1" parent="WIyWlLk6GJQsqaUBKTNV-1">
          <mxGeometry x="708" y="311" width="150" height="40" as="geometry" />
        </mxCell>
        <mxCell id="84JxiOLE3dLLp7DLEGVT-25" value="Blue-Green deployment complete" style="rounded=1;whiteSpace=wrap;html=1;fontSize=12;glass=0;strokeWidth=1;shadow=0;" vertex="1" parent="WIyWlLk6GJQsqaUBKTNV-1">
          <mxGeometry x="714" y="412" width="138" height="40" as="geometry" />
        </mxCell>
        <mxCell id="84JxiOLE3dLLp7DLEGVT-29" style="edgeStyle=orthogonalEdgeStyle;rounded=0;orthogonalLoop=1;jettySize=auto;html=1;entryX=1;entryY=0.5;entryDx=0;entryDy=0;" edge="1" parent="WIyWlLk6GJQsqaUBKTNV-1" source="84JxiOLE3dLLp7DLEGVT-27" target="WIyWlLk6GJQsqaUBKTNV-3">
          <mxGeometry relative="1" as="geometry" />
        </mxCell>
        <mxCell id="84JxiOLE3dLLp7DLEGVT-27" value="Stop green server&lt;div&gt;Resume blue&lt;/div&gt;" style="rounded=1;whiteSpace=wrap;html=1;fontSize=12;glass=0;strokeWidth=1;shadow=0;" vertex="1" parent="WIyWlLk6GJQsqaUBKTNV-1">
          <mxGeometry x="513" y="150" width="120" height="40" as="geometry" />
        </mxCell>
      </root>
    </mxGraphModel>
  </diagram>
</mxfile>
